<svg height="486pt" viewBox="0 -83 486.06505 486" width="486pt" xmlns="http://www.w3.org/2000/svg"><path d="m476.0625 203.152344c0 5.253906-.605469 10.492187-1.808594 15.609375-1.15625 4.898437-2.863281 9.648437-5.089844 14.160156 0 .011719-.011718.019531-.019531.03125-5.390625 10.121094-14.332031 19.660156-26.222656 28.339844-40.078125 29.28125-113.679687 48.898437-197.839844 48.898437-74.039062 0-139.898437-15.1875-181.960937-38.769531-13.398438-7.507813-24.378906-15.871094-32.4375-24.859375l-.011719-.019531c-22.246094-27.003907-26.910156-64.417969-11.980469-96.058594 14.929688-31.640625 46.777344-51.824219 81.761719-51.820313 2.710937 0 5.394531.117188 8.058594.359376 25.125-59.664063 86.660156-95.535157 150.957031-88.003907 64.296875 7.535157 115.871094 56.660157 126.523438 120.511719.410156 2.5.761718 5.027344 1.050781 7.582031 6.925781-2.3125 14.179687-3.492187 21.480469-3.492187 37.300781-.007813 67.542968 30.230468 67.539062 67.53125zm0 0" fill="#d4e1f4"/><path d="m408.523438 125.621094c-3.617188-.003906-7.226563.25-10.804688.753906-.804688.113281-1.609375.234375-2.414062.375-12.433594-66.132812-66.007813-116.753906-132.738282-125.421875-66.730468-8.667969-131.460937 26.585937-160.375 87.347656-.578125-.007812-1.160156-.011719-1.738281-.011719-38.816406-.039062-74.175781 22.3125-90.792969 57.394532-16.617187 35.078125-11.515625 76.597656 13.101563 106.609375.152343.195312.308593.386719.476562.570312 8.71875 9.726563 20.5 18.78125 35 26.90625 45.398438 25.449219 113.5 40.046875 186.847657 40.046875 84.011718 0 160.175781-19 203.738281-50.820312 13.253906-9.679688 23.039062-20.300782 29.078125-31.585938.082031-.144531.15625-.292968.230468-.441406 2.558594-5.191406 4.523438-10.65625 5.855469-16.292969 5.449219-23.070312.050781-47.367187-14.65625-65.960937-14.703125-18.597656-37.101562-29.449219-60.808593-29.46875zm56 90.84375c-.964844 4.078125-2.375 8.035156-4.214844 11.800781-4.605469 8.636719-12.4375 17.03125-23.28125 24.949219-39.664063 28.972656-113.210938 46.972656-191.941406 46.972656-70.03125 0-134.570313-13.664062-177.070313-37.492188-12.460937-6.976562-22.441406-14.574218-29.675781-22.574218-19.75-24.023438-23.875-57.285156-10.589844-85.40625 13.289062-28.121094 41.601562-46.054688 72.703125-46.050782 2.398437 0 4.8125.105469 7.160156.316407 4.335938.394531 8.425781-2.066407 10.117188-6.078125 23.390625-55.554688 80.691406-88.964844 140.5625-81.953125 59.871093 7.007812 107.90625 52.746093 117.835937 112.203125.378906 2.3125.710938 4.699218.980469 7.089844.34375 3 2.019531 5.683593 4.566406 7.304687 2.542969 1.621094 5.6875 2.007813 8.546875 1.046875 5.902344-1.96875 12.082032-2.972656 18.300782-2.972656 31.761718.035156 57.5 25.769531 57.539062 57.53125 0 4.484375-.515625 8.949218-1.542969 13.3125zm0 0" fill="#083863"/></svg>