<svg height="464pt" viewBox="-23 0 464 464.84597" width="464pt" xmlns="http://www.w3.org/2000/svg"><path d="m398.199219 249.226562c.003906 3.75-.429688 7.488282-1.289063 11.136719-.828125 3.492188-2.042968 6.882813-3.628906 10.101563 0 .011718-.011719.011718-.019531.019531-3.851563 7.21875-10.230469 14.03125-18.710938 20.21875-28.609375 20.902344-81.128906 34.902344-141.191406 34.902344-52.839844 0-99.847656-10.839844-129.867187-27.671875-9.5625-5.347656-17.390626-11.320313-23.140626-17.738282l-.011718-.011718c-15.878906-19.265625-19.214844-45.96875-8.5625-68.554688 10.65625-22.582031 33.382812-36.988281 58.355468-36.984375 1.9375 0 3.859376.082031 5.757813.25.558594-1.320312 1.140625-2.628906 1.761719-3.917969 19.335937-41.082031 63.132812-64.820312 108.109375-58.605468 44.976562 6.21875 80.691406 40.949218 88.160156 85.734375.300781 1.78125.539063 3.589843.75 5.410156 2.796875-.941406 5.675781-1.617187 8.597656-2.019531 13.824219-1.96875 27.824219 2.164062 38.363281 11.324218 10.542969 9.15625 16.585938 22.441407 16.566407 36.40625zm0 0" fill="#d4e1f4"/><path d="m172.691406 129.394531.140625.210938c-15.183593 10.433593-27.324219 24.707031-35.179687 41.371093l-.191406-.089843c-20.222657 5.417969-41.617188-2.941407-52.8125-20.628907-11.199219-17.6875-9.59375-40.601562 3.957031-56.558593 13.546875-15.960938 35.898437-21.257813 55.167969-13.074219 19.273437 8.179688 30.984374 27.9375 28.917968 48.769531zm0 0" fill="#fedb41"/><g fill="#083863"><path d="m233.359375 335.605469c60.539063 0 115.527344-13.765625 147.085937-36.824219 9.707032-7.085938 16.921876-14.675781 21.453126-23.019531.125-.210938.242187-.417969.347656-.417969 1.898437-3.988281 3.375-8.167969 4.402344-12.46875 1.03125-4.4375 1.550781-8.980469 1.550781-13.535156-.027344-16.683594-7.191407-32.554688-19.683594-43.609375-12.492187-11.054688-29.113281-16.238281-45.675781-14.238281-7.300782-34.234376-29.945313-63.207032-61.40625-78.558594-31.457032-15.351563-68.226563-15.375-99.707032-.070313-5.367187-25.792969-27.480468-44.699219-53.796874-45.992187-26.3125-1.292969-50.175782 15.355468-58.042969 40.5-7.867188 25.144531 2.25 52.425781 24.605469 66.363281-19.546876 10.613281-33.324219 29.414063-37.554688 51.25-4.230469 21.839844 1.527344 44.425781 15.695312 61.570313.101563.121093.203126.246093.316407.363281 6.441406 7.175781 15.074219 13.820312 25.652343 19.738281 32.8125 18.398438 81.929688 28.949219 134.757813 28.949219zm-145.925781-214.683594c1.988281-20.027344 19.308594-34.992187 39.414062-34.054687 20.105469.9375 35.957032 17.449218 36.078125 37.574218-13.28125 10.050782-24.199219 22.890625-31.988281 37.609375-11.574219 1.816407-23.335938-1.832031-31.847656-9.882812-8.515625-8.046875-12.820313-19.585938-11.65625-31.246094zm.480468 152.730469c-13.324218-16.308594-16.070312-38.832032-7.042968-57.855469 9.023437-19.027344 28.199218-31.15625 49.261718-31.152344 1.667969 0 3.308594.070313 4.867188.210938 4.324219.386719 8.40625-2.058594 10.101562-6.054688.566407-1.335937 1.078126-2.480469 1.597657-3.566406 7.105469-15.058594 18.078125-27.960937 31.800781-37.390625 26.425781-18.125 60.277344-21.503906 89.765625-8.960938 29.484375 12.546876 50.527344 39.277344 55.792969 70.886719.238281 1.417969.460937 3.019531.675781 4.894531.347656 2.996094 2.027344 5.675782 4.574219 7.292969 2.542968 1.617188 5.683594 1.996094 8.542968 1.039063 3.917969-1.300782 8.019532-1.96875 12.148438-1.980469 21.089844.027344 38.175781 17.121094 38.199219 38.210937 0 2.96875-.34375 5.929688-1.019531 8.824219-.625 2.644531-1.535157 5.21875-2.710938 7.667969l-.035156.0625c-3.085938 5.789062-8.398438 11.457031-15.785156 16.847656-27.839844 20.339844-79.679688 32.976563-135.289063 32.976563-48.78125 0-95.5-9.867188-124.988281-26.402344-8.609375-4.816406-15.492188-10.050781-20.457032-15.550781zm0 0"/><path d="m131.613281 59.007812c.335938.03125.667969.046876 1 .046876 5.136719-.007813 9.429688-3.902344 9.9375-9.007813l3.890625-39.210937c.457032-5.445313-3.542968-10.246094-8.976562-10.7851568-5.4375-.5429692-10.300782 3.3828128-10.925782 8.8085938l-3.886718 39.210937c-.542969 5.496094 3.46875 10.390626 8.960937 10.9375zm0 0"/><path d="m49.484375 127.144531c5.332031 0 9.722656-4.1875 9.984375-9.511719.257812-5.324218-3.703125-9.917968-9.011719-10.441406l-39.199219-3.886718c-5.445312-.457032-10.246093 3.539062-10.785156 8.976562-.5390622 5.4375 3.382813 10.300781 8.8125 10.921875l39.199219 3.890625c.335937.035156.667969.050781 1 .050781zm0 0"/><path d="m36.425781 207.304688c2.3125.003906 4.550781-.796876 6.332031-2.265626l29.242188-23.960937c4.269531-3.5 4.894531-9.800781 1.394531-14.070313-3.5-4.273437-9.800781-4.898437-14.070312-1.398437l-29.242188 23.960937c-3.269531 2.679688-4.5 7.125-3.078125 11.101563 1.425782 3.980469 5.195313 6.636719 9.421875 6.632813zm0 0"/><path d="m184.507812 85.984375c2.308594.003906 4.546876-.796875 6.332032-2.261719l29.25-23.960937c4.269531-3.5 4.898437-9.800781 1.398437-14.074219s-9.800781-4.898438-14.074219-1.398438l-29.25 23.957032c-3.269531 2.675781-4.503906 7.121094-3.082031 11.101562 1.425781 3.980469 5.199219 6.636719 9.425781 6.632813zm0 0"/><path d="m76.417969 75.246094c3.863281-.003906 7.378906-2.230469 9.03125-5.722656 1.652343-3.492188 1.144531-7.625-1.300781-10.617188l-23.960938-29.25c-3.5-4.269531-9.800781-4.898438-14.074219-1.398438-4.273437 3.5-4.898437 9.800782-1.398437 14.074219l23.960937 29.25c1.898438 2.324219 4.742188 3.667969 7.742188 3.664063zm0 0"/><path d="m188.886719 407.996094c-4.886719-2.570313-10.933594-.695313-13.503907 4.191406l-20 38c-2.574218 4.886719-.695312 10.933594 4.191407 13.507812 4.886719 2.570313 10.933593.695313 13.507812-4.191406l20-38c2.570313-4.890625.695313-10.9375-4.195312-13.507812zm0 0"/><path d="m248.886719 407.996094c-4.886719-2.570313-10.933594-.695313-13.503907 4.191406l-20 38c-2.574218 4.886719-.695312 10.933594 4.191407 13.507812 4.886719 2.570313 10.933593.695313 13.507812-4.191406l20-38c2.570313-4.890625.695313-10.9375-4.195312-13.507812zm0 0"/><path d="m308.886719 407.996094c-4.886719-2.570313-10.933594-.695313-13.503907 4.191406l-20 38c-2.574218 4.886719-.695312 10.933594 4.191407 13.507812 4.886719 2.570313 10.933593.695313 13.507812-4.191406l20-38c2.570313-4.890625.695313-10.9375-4.195312-13.507812zm0 0"/><path d="m358.886719 407.996094c-4.886719-2.570313-10.933594-.695313-13.503907 4.191406l-20 38c-2.574218 4.886719-.695312 10.933594 4.191407 13.507812 4.886719 2.570313 10.933593.695313 13.507812-4.191406l20-38c2.570313-4.890625.695313-10.9375-4.195312-13.507812zm0 0"/><path d="m128.886719 407.996094c-4.886719-2.570313-10.933594-.695313-13.503907 4.191406l-20 38c-2.574218 4.886719-.695312 10.933594 4.191407 13.507812 4.886719 2.570313 10.933593.695313 13.507812-4.191406l20-38c2.570313-4.890625.695313-10.9375-4.195312-13.507812zm0 0"/><path d="m68.886719 407.996094c-4.886719-2.570313-10.933594-.695313-13.503907 4.191406l-20 38c-2.574218 4.886719-.695312 10.933594 4.191407 13.507812 4.886719 2.570313 10.933593.695313 13.507812-4.191406l20-38c2.570313-4.890625.695313-10.9375-4.195312-13.507812zm0 0"/><path d="m219.222656 401.84375c3.714844.003906 7.128906-2.054688 8.855469-5.34375l20-38c2.574219-4.886719.699219-10.933594-4.191406-13.507812-4.886719-2.570313-10.933594-.695313-13.507813 4.191406l-20 38c-1.628906 3.101562-1.523437 6.828125.285156 9.824218 1.808594 3 5.054688 4.835938 8.554688 4.835938zm0 0"/><path d="m279.222656 401.84375c3.714844.003906 7.128906-2.054688 8.855469-5.34375l20-38c2.574219-4.886719.699219-10.933594-4.191406-13.507812-4.886719-2.570313-10.933594-.695313-13.507813 4.191406l-20 38c-1.628906 3.101562-1.523437 6.828125.285156 9.824218 1.808594 3 5.054688 4.835938 8.554688 4.835938zm0 0"/><path d="m363.886719 344.996094c-4.886719-2.570313-10.933594-.695313-13.503907 4.191406l-20 38c-2.574218 4.886719-.695312 10.933594 4.191407 13.507812 4.886719 2.570313 10.933593.695313 13.507812-4.191406l20-38c2.570313-4.890625.695313-10.9375-4.195312-13.507812zm0 0"/><path d="m413.886719 344.996094c-4.886719-2.570313-10.933594-.695313-13.503907 4.191406l-20 38c-2.574218 4.886719-.695312 10.933594 4.191407 13.507812 4.886719 2.570313 10.933593.695313 13.507812-4.191406l20-38c2.570313-4.890625.695313-10.9375-4.195312-13.507812zm0 0"/><path d="m159.222656 401.84375c3.714844.003906 7.128906-2.054688 8.855469-5.34375l20-38c2.574219-4.886719.699219-10.933594-4.191406-13.507812-4.886719-2.570313-10.933594-.695313-13.507813 4.191406l-20 38c-1.628906 3.101562-1.523437 6.828125.285156 9.824218 1.808594 3 5.054688 4.835938 8.554688 4.835938zm0 0"/><path d="m99.222656 401.84375c3.714844.003906 7.128906-2.054688 8.855469-5.34375l20-38c2.574219-4.886719.699219-10.933594-4.191406-13.507812-4.886719-2.570313-10.933594-.695313-13.507813 4.191406l-20 38c-1.628906 3.101562-1.523437 6.828125.285156 9.824218 1.808594 3 5.054688 4.835938 8.554688 4.835938zm0 0"/><path d="m39.222656 401.84375c3.714844.003906 7.128906-2.054688 8.855469-5.34375l20-38c2.574219-4.886719.699219-10.933594-4.191406-13.507812-4.886719-2.570313-10.933594-.695313-13.507813 4.191406l-20 38c-1.628906 3.101562-1.523437 6.828125.285156 9.824218 1.808594 3 5.054688 4.835938 8.554688 4.835938zm0 0"/></g></svg>