<svg height="498pt" viewBox="0 -44 498.91733 498" width="498pt" xmlns="http://www.w3.org/2000/svg"><path d="m488.921875 306.210938c0 4.628906-.539063 9.246093-1.601563 13.75-1.015624 4.316406-2.519531 8.503906-4.480468 12.480468 0 .011719-.007813.019532-.019532.03125-4.75 8.917969-12.628906 17.320313-23.109374 24.96875-35.320313 25.800782-100.191407 43.101563-174.359376 43.101563-65.25 0-123.300781-13.390625-160.359374-34.171875-11.8125-6.621094-21.480469-13.988282-28.589844-21.910156l-.011719-.007813c-19.605469-23.800781-23.71875-56.777344-10.5625-84.664063 13.160156-27.886718 41.226563-45.679687 72.0625-45.679687 2.390625 0 4.757813.109375 7.101563.320313.6875-1.628907 1.410156-3.246094 2.167968-4.847657 23.882813-50.730469 77.964844-80.050781 133.507813-72.375 55.542969 7.679688 99.648437 50.566407 108.871093 105.875.363282 2.210938.671876 4.4375.929688 6.679688 3.453125-1.164063 7.003906-1.996094 10.613281-2.492188 2.753907-.394531 5.535157-.589843 8.320313-.589843 32.871094.003906 59.519531 26.65625 59.519531 59.53125zm0 0" fill="#d4e1f4"/><path d="m210.441406 158.230469.167969.25c-18.746094 12.894531-33.738281 30.527343-43.449219 51.101562l-.21875-.109375c-24.972656 6.691406-51.394531-3.625-65.222656-25.46875-13.832031-21.839844-11.855469-50.136718 4.878906-69.847656 16.730469-19.707031 44.332032-26.25 68.128906-16.148438 23.796876 10.097657 38.265626 34.496094 35.714844 60.222657zm0 0" fill="#fedb41"/><g fill="#083863"><path d="m429.402344 236.679688c-3.238282 0-6.472656.226562-9.679688.683593-.34375.046875-.683594.101563-1.027344.148438-8.382812-42.617188-36.316406-78.816407-75.421874-97.726563-39.101563-18.910156-84.820313-18.335937-123.433594 1.554688-5.175782-31.949219-31.84375-56.023438-64.152344-57.914063-32.3125-1.890625-61.605469 18.90625-70.472656 50.035157-8.867188 31.128906 5.066406 64.238281 33.523437 79.660156-24.75 11.988281-42.628906 34.675781-48.492187 61.546875-5.867188 26.867187.929687 54.941406 18.433594 76.152343.101562.125.214843.253907.328124.375 7.785157 8.660157 18.246094 16.703126 31.101563 23.902344 40.167969 22.523438 100.398437 35.445313 165.242187 35.445313 74.273438 0 141.660157-16.832031 180.253907-45.023438 11.832031-8.636719 20.566406-18.128906 25.972656-28.21875.078125-.144531.15625-.289062.226563-.433593 2.296874-4.65625 4.054687-9.558594 5.246093-14.609376 4.890625-20.6875.054688-42.476562-13.125-59.152343-13.183593-16.675781-33.269531-26.410157-54.523437-26.425781zm-326.589844-89.136719c2.574219-26.226563 25.402344-45.738281 51.710938-44.195313 26.304687 1.542969 46.699218 23.589844 46.1875 49.9375-16.851563 12.546875-30.628907 28.753906-40.300782 47.40625-15.152344 2.738282-30.714844-1.792968-42.03125-12.234375-11.316406-10.445312-17.082031-25.589843-15.566406-40.914062zm374.777344 170.128906c-.820313 3.496094-2.027344 6.890625-3.597656 10.121094-3.972657 7.445312-10.757813 14.699219-20.171876 21.578125-34.773437 25.398437-99.324218 41.175781-168.464843 41.175781-61.523438 0-118.1875-11.992187-155.46875-32.894531-10.886719-6.101563-19.605469-12.742188-25.917969-19.730469-3.921875-4.792969-7.191406-10.082031-9.722656-15.734375-9.601563-21.558594-7.644532-46.515625 5.203125-66.3125 12.847656-19.800781 34.839843-31.753906 58.441406-31.765625 2.050781 0 4.136719.097656 6.207031.28125 4.324219.386719 8.40625-2.0625 10.101563-6.0625.679687-1.609375 1.332031-3.066406 2.003906-4.484375 8.957031-18.972656 22.785156-35.234375 40.070313-47.121094 33.289062-22.832031 75.929687-27.09375 113.078124-11.300781 37.144532 15.792969 63.664063 49.453125 70.320313 89.265625.332031 2.042969.621094 4.136719.867187 6.226562.347657 2.996094 2.027344 5.675782 4.578126 7.292969 2.546874 1.617188 5.6875 1.992188 8.546874 1.03125 2.875-.96875 5.835938-1.660156 8.839844-2.070312 2.285156-.324219 4.589844-.488281 6.898438-.488281 15.144531.015624 29.457031 6.953124 38.847656 18.839843 9.390625 11.882813 12.832031 27.410157 9.339844 42.152344zm0 0"/><path d="m159.941406 68.972656c2.640625.261719 5.277344-.53125 7.328125-2.214844 2.054688-1.679687 3.351563-4.109374 3.613281-6.75l4.808594-48.417968c.40625-3.585938-1.144531-7.109375-4.066406-9.226563-2.917969-2.117187-6.753906-2.5-10.03125-.996093-3.28125 1.5-5.496094 4.652343-5.800781 8.246093l-4.8125 48.417969c-.542969 5.496094 3.46875 10.394531 8.960937 10.941406zm0 0"/><path d="m58.289062 153.113281c5.332032-.003906 9.726563-4.1875 9.988282-9.511719.257812-5.328124-3.703125-9.917968-9.011719-10.441406l-48.417969-4.808594c-5.449218-.464843-10.257812 3.535157-10.7968748 8.972657-.5429692 5.441406 3.3867188 10.308593 8.8203128 10.925781l48.417968 4.808594c.339844.035156.671876.054687 1 .054687zm0 0"/><path d="m48.5 249.828125 36.109375-29.59375c4.144531-3.53125 4.695313-9.734375 1.242187-13.945313-3.449218-4.214843-9.640624-4.886718-13.917968-1.519531l-36.109375 29.589844c-4.273438 3.503906-4.898438 9.804687-1.398438 14.074219 3.5 4.273437 9.800781 4.898437 14.074219 1.398437zm0 0"/><path d="m225.035156 102.28125c2.3125 0 4.550782-.800781 6.332032-2.265625l36.109374-29.589844c4.273438-3.5 4.898438-9.800781 1.398438-14.074219-3.5-4.269531-9.800781-4.894531-14.074219-1.394531l-36.109375 29.589844c-3.269531 2.679687-4.5 7.121094-3.078125 11.101563 1.425781 3.980468 5.195313 6.636718 9.421875 6.632812zm0 0"/><path d="m83.804688 85.359375c2.253906 2.789063 5.832031 4.160156 9.375 3.585937 3.542968-.574218 6.507812-3.003906 7.765624-6.363281 1.261719-3.359375.621094-7.136719-1.667968-9.898437l-29.585938-36.121094c-3.5-4.273438-9.800781-4.898438-14.074218-1.398438-4.273438 3.5-4.902344 9.800782-1.402344 14.074219zm0 0"/></g></svg>