<svg height="449pt" viewBox="-23 0 449 449.50057" width="449pt" xmlns="http://www.w3.org/2000/svg"><path d="m393.53125 168.90625c0 4.324219-.5 8.632812-1.492188 12.839844-.945312 4.023437-2.347656 7.929687-4.179687 11.640625 0 .007812-.007813.019531-.019531.027343-4.429688 8.320313-11.777344 16.160157-21.558594 23.300782-32.960938 24.070312-93.492188 40.210937-162.699219 40.210937-60.890625 0-115.0625-12.488281-149.640625-31.878906-11.019531-6.171875-20.050781-13.050781-26.679687-20.453125v-.007812c-18.296875-22.203126-22.140625-52.972657-9.867188-78.996094 12.277344-26.019532 38.464844-42.625 67.234375-42.625 2.242188 0 4.453125.101562 6.632813.300781 20.664062-49.0625 71.265625-78.5625 124.140625-72.367187 52.875 6.191406 95.292968 46.585937 104.058594 99.097656.339843 2.058594.628906 4.140625.871093 6.238281 3.21875-1.082031 6.53125-1.863281 9.898438-2.328125 15.925781-2.238281 32.039062 2.535156 44.175781 13.082031 12.140625 10.546875 19.113281 25.835938 19.125 41.917969zm0 0" fill="#d4e1f4"/><path d="m364.21875 329.664062c8.09375 12.292969 15.292969 25.640626 15.292969 34.242188-.011719 19.660156-16.839844 35.589844-37.601563 35.597656-20.757812-.007812-37.589844-15.9375-37.597656-35.597656 0-8.601562 7.199219-21.949219 15.289062-34.242188 6.910157-10.332031 14.355469-20.296874 22.308594-29.847656 7.953125 9.550782 15.402344 19.515625 22.308594 29.847656zm0 0" fill="#00acea"/><path d="m224.21875 369.664062c8.09375 12.292969 15.292969 25.640626 15.292969 34.242188-.011719 19.660156-16.839844 35.589844-37.601563 35.597656-20.757812-.007812-37.589844-15.9375-37.597656-35.597656 0-8.601562 7.199219-21.949219 15.289062-34.242188 6.910157-10.332031 14.355469-20.296874 22.308594-29.847656 7.953125 9.550782 15.402344 19.515625 22.308594 29.847656zm0 0" fill="#00acea"/><path d="m94.21875 329.664062c8.09375 12.292969 15.292969 25.640626 15.292969 34.242188-.011719 19.660156-16.839844 35.589844-37.601563 35.597656-20.757812-.007812-37.589844-15.9375-37.597656-35.597656 0-8.601562 7.199219-21.949219 15.289062-34.242188 6.910157-10.332031 14.355469-20.296874 22.308594-29.847656 7.953125 9.550782 15.402344 19.515625 22.308594 29.847656zm0 0" fill="#00acea"/><g fill="#083863"><path d="m337.992188 103.367188c-3.054688-.003907-6.105469.207031-9.128907.632812l-.328125.046875c-10.96875-54.488281-55.453125-95.921875-110.582031-102.992187-55.128906-7.074219-108.628906 21.785156-133 71.742187h-.324219c-32.605468.011719-62.289062 18.804687-76.25 48.269531-13.960937 29.46875-9.703125 64.339844 10.9375 89.582032.160156.199218.324219.417968.5.609374 7.3125 8.160157 17.152344 15.738282 29.238282 22.5 37.578124 21.070313 93.898437 33.160157 154.53125 33.160157 69.441406 0 132.472656-15.75 168.601562-42.132813 11.105469-8.109375 19.320312-17.042968 24.410156-26.535156.082032-.152344.160156-.460938.238282-.460938 2.222656-4.363281 3.882812-8.988281 4.945312-13.769531 4.605469-19.5.042969-40.035156-12.386719-55.753906-12.429687-15.714844-31.359375-24.890625-51.398437-24.90625zm44.320312 76.082031c-.757812 3.210937-1.867188 6.328125-3.308594 9.292969-3.65625 6.851562-9.921875 13.546874-18.617187 19.898437-32.339844 23.617187-92.421875 38.285156-156.800781 38.285156-57.304688 0-110.066407-11.152343-144.753907-30.605469-10.039062-5.617187-18.074219-11.722656-23.894531-18.148437-3.664062-4.449219-6.714844-9.367187-9.074219-14.625-8.867187-19.910156-7.058593-42.953125 4.804688-61.238281 11.859375-18.285156 32.167969-29.328125 53.960937-29.34375 1.929688 0 3.851563.085937 5.71875.257812 4.339844.398438 8.4375-2.058594 10.128906-6.074218 18.925782-44.964844 65.296876-72.003907 113.753907-66.332032s87.328125 42.6875 95.363281 90.808594c.3125 1.886719.582031 3.820312.800781 5.746094.34375 3 2.023438 5.683594 4.570313 7.304687 2.546875 1.617188 5.691406 2 8.550781 1.039063 2.640625-.890625 5.359375-1.527344 8.121094-1.910156 13.054687-1.828126 26.261719 2.089843 36.214843 10.738281 9.949219 8.644531 15.667969 21.179687 15.675782 34.363281 0 3.550781-.40625 7.085938-1.214844 10.542969zm0 0"/><path d="m209.597656 333.421875c-1.898437-2.285156-4.714844-3.605469-7.6875-3.605469-2.96875 0-5.789062 1.320313-7.6875 3.605469-8.253906 9.839844-15.988281 20.101563-23.175781 30.746094-11.554687 17.554687-17.136719 30.179687-17.136719 39.738281 0 25.128906 21.566406 45.582031 47.804688 45.59375 26.230468-.011719 47.683594-20.464844 47.695312-45.597656 0-9.558594-5.332031-22.183594-16.925781-39.800782-7.089844-10.621093-14.726563-20.859374-22.886719-30.679687zm-7.683594 96.082031c-15.210937-.003906-27.597656-11.492187-27.597656-25.597656 0-1.886719.992188-9.519531 13.597656-28.679688 4.402344-6.585937 9.085938-13.085937 14-19.433593 4.910157 6.339843 9.585938 12.832031 13.957032 19.375 12.65625 19.226562 13.640625 26.855469 13.640625 28.734375-.007813 14.109375-12.390625 25.59375-27.597657 25.601562zm0 0"/><path d="m349.597656 293.421875c-1.898437-2.285156-4.714844-3.605469-7.6875-3.605469-2.96875 0-5.789062 1.320313-7.6875 3.605469-8.253906 9.839844-15.988281 20.101563-23.175781 30.746094-11.554687 17.554687-17.136719 30.179687-17.136719 39.738281 0 25.128906 21.566406 45.582031 47.804688 45.59375 26.230468-.011719 47.683594-20.464844 47.695312-45.597656 0-9.558594-5.332031-22.183594-16.925781-39.800782-7.089844-10.621093-14.726563-20.859374-22.886719-30.679687zm-7.683594 96.082031c-15.210937-.003906-27.597656-11.492187-27.601562-25.597656 0-1.886719.988281-9.519531 13.597656-28.679688 4.402344-6.585937 9.085938-13.085937 14-19.433593 4.910156 6.339843 9.585938 12.832031 13.957032 19.375 12.660156 19.226562 13.644531 26.855469 13.644531 28.734375-.007813 14.109375-12.390625 25.59375-27.597657 25.601562zm0 0"/><path d="m79.597656 293.421875c-1.898437-2.285156-4.714844-3.605469-7.6875-3.605469-2.96875 0-5.789062 1.320313-7.6875 3.605469-8.253906 9.839844-15.988281 20.101563-23.175781 30.746094-11.554687 17.554687-17.136719 30.179687-17.136719 39.738281 0 25.128906 21.566406 45.582031 47.804688 45.59375 26.230468-.011719 47.683594-20.464844 47.695312-45.597656 0-9.558594-5.332031-22.183594-16.925781-39.800782-7.089844-10.621093-14.726563-20.859374-22.886719-30.679687zm-7.683594 96.082031c-15.210937-.003906-27.597656-11.492187-27.597656-25.597656 0-1.886719.992188-9.519531 13.597656-28.679688 4.402344-6.585937 9.085938-13.085937 14-19.433593 4.910157 6.339843 9.585938 12.832031 13.957032 19.375 12.65625 19.226562 13.640625 26.855469 13.640625 28.734375-.007813 14.109375-12.390625 25.59375-27.597657 25.601562zm0 0"/></g></svg>