<svg height="449pt" viewBox="-23 0 449 449.87458" width="449pt" xmlns="http://www.w3.org/2000/svg"><path d="m393.714844 168.835938c0 4.320312-.5 8.628906-1.488282 12.839843-.949218 4.023438-2.351562 7.929688-4.183593 11.640625 0 .007813-.007813.019532-.019531.027344-4.429688 8.320312-11.777344 16.171875-21.558594 23.300781-32.960938 24.078125-93.488282 40.21875-162.699219 40.21875-60.890625 0-115.0625-12.488281-149.640625-31.890625-11.019531-6.167968-20.050781-13.046875-26.679688-20.4375v-.011718c-18.296874-22.203126-22.140624-52.972657-9.867187-78.992188 12.277344-26.023438 38.464844-42.625 67.238281-42.625 2.238282 0 4.449219.09375 6.628906.289062 20.660157-49.070312 71.265626-78.574218 124.148438-72.378906 52.878906 6.195313 95.292969 46.601563 104.050781 99.117188.339844 2.0625.628907 4.140625.871094 6.242187 3.21875-1.089843 6.53125-1.871093 9.898437-2.332031 15.929688-2.257812 32.050782 2.503906 44.195313 13.054688 12.144531 10.550781 19.117187 25.847656 19.105469 41.9375zm0 0" fill="#d4e1f4"/><g fill="#083863"><path d="m338.175781 103.292969c-3.054687.003906-6.101562.21875-9.125.644531l-.332031.046875c-10.988281-54.484375-55.496094-95.898437-110.632812-102.941406-55.132813-7.039063-108.621094 21.855469-132.953126 71.832031h-.316406c-32.59375-.019531-62.277344 18.746094-76.242187 48.191406-13.96875 29.449219-9.714844 64.308594 10.921875 89.53125.160156.210938.328125.414063.5.613282 7.316406 8.15625 17.152344 15.722656 29.230468 22.484374 37.570313 21.078126 93.898438 33.167969 154.53125 33.167969 69.449219 0 132.476563-15.753906 168.589844-42.140625 11.101563-8.09375 19.320313-16.953125 24.421875-26.46875.078125-.144531.15625-.378906.230469-.378906 2.222656-4.386719 3.886719-9.039062 4.949219-13.84375 1.164062-4.972656 1.753906-10.058594 1.753906-15.164062-.035156-36.183594-29.347656-65.511719-65.527344-65.574219zm44.320313 76.089843c-.753906 3.207032-1.859375 6.320313-3.300782 9.28125-3.664062 6.871094-9.925781 13.566407-18.621093 19.90625-32.332031 23.621094-92.417969 38.300782-156.800781 38.300782-57.3125 0-110.070313-11.160156-144.753907-30.617188-10.03125-5.613281-18.066406-11.714844-23.894531-18.140625-15.808594-19.222656-19.109375-45.839843-8.476562-68.34375 10.628906-22.503906 33.289062-36.859375 58.175781-36.859375 1.902343 0 3.839843.085938 5.761719.25 4.324218.375 8.394531-2.078125 10.082031-6.078125 18.933593-44.964843 65.304687-72.003906 113.761719-66.328125 48.453124 5.671875 87.328124 42.691406 95.359374 90.8125.3125 1.890625.582032 3.824219.796876 5.75.34375 3.003906 2.03125 5.691406 4.585937 7.308594 2.550781 1.621094 5.703125 1.996094 8.566406 1.023438 2.632813-.890626 5.34375-1.527344 8.097657-1.898438 13.058593-1.851562 26.277343 2.054688 36.234374 10.703125 9.953126 8.652344 15.667969 21.195313 15.65625 34.386719-.003906 3.550781-.417968 7.089844-1.230468 10.542968zm0 0"/><path d="m177.09375 381.875c-5.523438 0-10 4.476562-10 10v48c0 5.523438 4.476562 10 10 10s10-4.476562 10-10v-48c0-5.523438-4.476562-10-10-10zm0 0"/><path d="m237.09375 381.875c-5.523438 0-10 4.476562-10 10v48c0 5.523438 4.476562 10 10 10s10-4.476562 10-10v-48c0-5.523438-4.476562-10-10-10zm0 0"/><path d="m297.09375 381.875c-5.523438 0-10 4.476562-10 10v48c0 5.523438 4.476562 10 10 10s10-4.476562 10-10v-48c0-5.523438-4.476562-10-10-10zm0 0"/><path d="m347.09375 381.875c-5.523438 0-10 4.476562-10 10v48c0 5.523438 4.476562 10 10 10s10-4.476562 10-10v-48c0-5.523438-4.476562-10-10-10zm0 0"/><path d="m117.09375 381.875c-5.523438 0-10 4.476562-10 10v48c0 5.523438 4.476562 10 10 10s10-4.476562 10-10v-48c0-5.523438-4.476562-10-10-10zm0 0"/><path d="m57.09375 381.875c-5.523438 0-10 4.476562-10 10v48c0 5.523438 4.476562 10 10 10s10-4.476562 10-10v-48c0-5.523438-4.476562-10-10-10zm0 0"/><path d="m207.09375 291.875c-5.523438 0-10 4.476562-10 10v48c0 5.523438 4.476562 10 10 10s10-4.476562 10-10v-48c0-5.523438-4.476562-10-10-10zm0 0"/><path d="m267.09375 291.875c-5.523438 0-10 4.476562-10 10v48c0 5.523438 4.476562 10 10 10s10-4.476562 10-10v-48c0-5.523438-4.476562-10-10-10zm0 0"/><path d="m337.09375 301.875c0-5.523438-4.476562-10-10-10s-10 4.476562-10 10v48c0 5.523438 4.476562 10 10 10s10-4.476562 10-10zm0 0"/><path d="m377.09375 291.875c-5.523438 0-10 4.476562-10 10v48c0 5.523438 4.476562 10 10 10s10-4.476562 10-10v-48c0-5.523438-4.476562-10-10-10zm0 0"/><path d="m147.09375 291.875c-5.523438 0-10 4.476562-10 10v48c0 5.523438 4.476562 10 10 10s10-4.476562 10-10v-48c0-5.523438-4.476562-10-10-10zm0 0"/><path d="m87.09375 291.875c-5.523438 0-10 4.476562-10 10v48c0 5.523438 4.476562 10 10 10s10-4.476562 10-10v-48c0-5.523438-4.476562-10-10-10zm0 0"/><path d="m27.09375 291.875c-5.523438 0-10 4.476562-10 10v48c0 5.523438 4.476562 10 10 10s10-4.476562 10-10v-48c0-5.523438-4.476562-10-10-10zm0 0"/></g></svg>