<svg height="475pt" viewBox="-36 0 475 475.83701" width="475pt" xmlns="http://www.w3.org/2000/svg"><path d="m393.695312 168.800781c0 4.324219-.5 8.632813-1.492187 12.839844-.945313 4.027344-2.347656 7.929687-4.179687 11.640625 0 .007812-.007813.019531-.019532.027344-4.429687 8.320312-11.777344 16.160156-21.558594 23.300781-25.921874 18.929687-68.878906 32.960937-119.699218 38.089844-14.289063 1.429687-28.640625 2.140625-43 2.128906-22.492188.054687-44.949219-1.730469-67.152344-5.328125-32.859375-5.410156-61.339844-14.691406-82.488281-26.558594-11.019531-6.171875-20.050781-13.050781-26.679688-20.441406v-.011719c-18.296875-22.203125-22.140625-52.972656-9.867187-78.992187 12.277344-26.023438 38.464844-42.625 67.234375-42.625 2.242187 0 4.453125.089844 6.632812.289062 20.660157-49.070312 71.265625-78.574218 124.148438-72.378906 52.878906 6.195312 95.292969 46.601562 104.050781 99.117188.339844 2.0625.628906 4.136718.871094 6.230468 3.21875-1.078125 6.535156-1.859375 9.898437-2.328125 2.570313-.359375 5.164063-.539062 7.761719-.539062 30.675781-.007813 55.542969 24.863281 55.539062 55.539062zm0 0" fill="#d4e1f4"/><path d="m246.976562 318.609375-79.011718 147.230469 4.511718-102.25-36.300781 6 .359375-117.761719.058594-.328125c22.203125 3.597656 44.660156 5.382812 67.152344 5.328125 14.359375.011719 28.710937-.699219 43-2.128906l.007812.128906-35.328125 63.78125zm0 0" fill="#fedb41"/><g fill="#083863"><path d="m338.15625 103.261719c-3.0625 0-6.121094.214843-9.15625.636719l-.300781.042968c-12.199219-60.472656-65.34375-103.9531248-127.035157-103.941406-49.914062 0-94.917968 27.910156-116.550781 72.910156h-.320312c-32.585938-.035156-62.273438 18.71875-76.238281 48.15625-13.96875 29.441406-9.714844 64.296875 10.925781 89.515625.160156.203125.328125.398438.5.597657 7.320312 8.15625 17.15625 15.722656 29.230469 22.480468 20.515624 11.515625 47.109374 20.5 77.300781 26.203125l-.335938 109.699219c-.007812 2.941406 1.277344 5.742188 3.519531 7.648438 2.242188 1.90625 5.207032 2.730468 8.113282 2.25l24.132812-3.988282-3.964844 89.925782c-.207031 4.660156 2.839844 8.84375 7.335938 10.082031 4.5 1.234375 9.253906-.800781 11.460938-4.910157l79.011718-147.230468c.109375-.207032.195313-.425782.289063-.636719v27.207031c0 5.523438 4.476562 10 10 10 5.523437 0 10-4.476562 10-10v-48c0-5.523437-4.476563-10-10-10-5.523438 0-10 4.476563-10 10v12.578125c-.15625-.296875-.328125-.585937-.519531-.863281-1.824219-2.980469-5.085938-4.773438-8.578126-4.714844h-18.582031l24.671875-44.6875c49.324219-5.640625 92.578125-19.964844 119.273438-39.460937 11.113281-8.113281 19.328125-17.082031 24.417968-26.578125.082032-.148438.160157-.3125.234376-.460938v-.007812c2.164062-4.390625 3.824218-9.011719 4.945312-13.777344 4.605469-19.503906.042969-40.042969-12.382812-55.761719-12.429688-15.71875-31.359376-24.898437-51.398438-24.914062zm-135.347656 220.574219c1.78125 3.089843 5.050781 5.015624 8.617187 5.074218h18.832031l-50.371093 93.714844 2.578125-58.515625c.140625-3.015625-1.089844-5.9375-3.34375-7.949219-2.253906-2.011718-5.296875-2.898437-8.277344-2.414062l-24.632812 4.0625.289062-94.726563c18.976562 2.523438 38.101562 3.777344 57.246094 3.753907 8.476562 0 16.945312-.246094 25.332031-.722657l-26.402344 47.726563c-1.714843 3.125-1.664062 6.917968.132813 9.996094zm179.667968-144.484376c-.757812 3.203126-1.863281 6.316407-3.300781 9.28125-3.65625 6.855469-9.921875 13.550782-18.621093 19.898438-24.867188 18.160156-66.714844 31.363281-114.800782 36.214844-13.707031 1.382812-27.835937 2.21875-42 2.21875-21.933594-.121094-43.832031-1.8125-65.527344-5.054688h-.007812c-31.417969-5-58.8125-14.101562-79.230469-25.558594-10.03125-5.617187-18.070312-11.789062-23.898437-18.210937-3.664063-4.464844-6.714844-9.394531-9.066406-14.667969-8.867188-19.910156-7.058594-42.957031 4.804687-61.242187 11.859375-18.285157 32.167969-29.332031 53.964844-29.351563 2 0 3.921875.078125 5.714843.242188 4.339844.398437 8.4375-2.058594 10.128907-6.074219 18.929687-44.964844 65.304687-72.003906 113.757812-66.332031 48.457031 5.671875 87.328125 42.691406 95.359375 90.8125.3125 1.882812.582032 3.816406.800782 5.742187.34375 3 2.023437 5.6875 4.574218 7.304688 2.550782 1.621093 5.695313 2 8.554688 1.035156 2.628906-.878906 5.335937-1.515625 8.082031-1.898437 2.117187-.296876 4.25-.445313 6.390625-.445313 25.136719.027344 45.511719 20.398437 45.539062 45.539063 0 3.550781-.410156 7.089843-1.21875 10.546874zm0 0"/><path d="m246.074219 439.910156v-48c0-5.523437-4.476563-10-10-10-5.523438 0-10 4.476563-10 10v48c0 5.523438 4.476562 10 10 10 5.523437 0 10-4.476562 10-10zm0 0"/><path d="m296.074219 449.910156c5.523437 0 10-4.476562 10-10v-48c0-5.523437-4.476563-10-10-10-5.523438 0-10 4.476563-10 10v48c0 5.523438 4.476562 10 10 10zm0 0"/><path d="m336.074219 439.910156c0 5.523438 4.476562 10 10 10 5.523437 0 10-4.476562 10-10v-48c0-5.523437-4.476563-10-10-10-5.523438 0-10 4.476563-10 10zm0 0"/><path d="m126.074219 439.910156v-48c0-5.523437-4.476563-10-10-10-5.523438 0-10 4.476563-10 10v48c0 5.523438 4.476562 10 10 10 5.523437 0 10-4.476562 10-10zm0 0"/><path d="m66.074219 439.910156v-48c0-5.523437-4.476563-10-10-10-5.523438 0-10 4.476563-10 10v48c0 5.523438 4.476562 10 10 10 5.523437 0 10-4.476562 10-10zm0 0"/><path d="m326.074219 291.910156c-5.523438 0-10 4.476563-10 10v48c0 5.523438 4.476562 10 10 10 5.523437 0 10-4.476562 10-10v-48c0-5.523437-4.476563-10-10-10zm0 0"/><path d="m386.074219 349.910156v-48c0-5.523437-4.476563-10-10-10-5.523438 0-10 4.476563-10 10v48c0 5.523438 4.476562 10 10 10 5.523437 0 10-4.476562 10-10zm0 0"/><path d="m96.074219 349.910156v-48c0-5.523437-4.476563-10-10-10-5.523438 0-10 4.476563-10 10v48c0 5.523438 4.476562 10 10 10 5.523437 0 10-4.476562 10-10zm0 0"/><path d="m36.074219 349.910156v-48c0-5.523437-4.476563-10-10-10-5.523438 0-10 4.476563-10 10v48c0 5.523438 4.476562 10 10 10 5.523437 0 10-4.476562 10-10zm0 0"/></g></svg>